<?xml version="1.0" encoding="UTF-8"?><svg id="Layer_1" xmlns="http://www.w3.org/2000/svg" viewBox="0 0 789 789.73"><defs><style>.cls-1{fill:#4454bc;}.cls-2{fill:#fff;}</style></defs><path class="cls-1" d="M726.49,597.16l-322.24,184.17c-6.02,3.44-13.42,3.41-19.4-.08l-320.62-186.98c-5.99-3.49-9.66-9.91-9.63-16.85l1.62-371.15c.03-6.93,3.76-13.32,9.78-16.76L388.24,5.33c6.02-3.44,13.42-3.41,19.4.08l320.62,186.98c5.99,3.49,9.66,9.91,9.63,16.85l-1.62,371.15c-.03,6.93-3.76,13.32-9.78,16.76Z"/><circle class="cls-2" cx="394.5" cy="394.86" r="76.6"/><path class="cls-2" d="M100.19,241.24l92.66,51.91c2.06,1.19,3.33,3.39,3.34,5.77l-.38,198.57c0,1.14-.7,2.27-.14,3.27l2.13,2.01c.58,1.04,1.43,1.9,2.46,2.5l176.55,102.2c2.06,1.2,3.32,3.4,3.32,5.78v106.89c0,4.96-5.41,8.03-9.67,5.48l-277.22-165.86c-1.93-1.15-3.11-3.24-3.11-5.48V247.03c0-5.16,5.59-8.38,10.05-5.79Z"/><path class="cls-2" d="M700.13,446.68v107.9c0,2.06-1.08,3.98-2.86,5.04l-278.26,166.48c-3.91,2.34-8.88-.48-8.88-5.04v-110.3c0-2.08,1.1-4,2.89-5.05l278.26-164.08c3.91-2.31,8.85.51,8.85,5.05Z"/><path class="cls-2" d="M418.22,51.18l266.66,154.65c3.35,1.98,3.33,6.83-.04,8.78l-88.92,51.3c-2.34,1.35-5.23,1.34-7.57-.03l-174.51-99.8c-2.3-1.35-3.71-3.82-3.71-6.48V55.8c0-4.15,4.51-6.73,8.09-4.62Z"/><path class="cls-2" d="M380.13,55.45v104.38c0,2.53-1.33,4.87-3.5,6.16l-167.36,99.91c-2.25,1.35-5.06,1.35-7.32.02l-86.29-50.83c-4.72-2.78-4.71-9.6,0-12.37L373.2,51.48c3.07-1.8,6.93.41,6.93,3.97Z"/></svg>